<svg xmlns="http://www.w3.org/2000/svg" viewBox="0 0 184.34 184.34"><defs><style>.cls-1{fill:#e0635c;}.cls-2{fill:#1a4f39;}</style></defs><g id="Layer_2" data-name="Layer 2"><g id="Layer_1-2" data-name="Layer 1"><path class="cls-1" d="M46.89,33.65,71.35,9.19a31.37,31.37,0,0,1,29-8.43l26.88,6A31.38,31.38,0,0,1,148.65,23.7L176.48,81a78.28,78.28,0,0,1,6.21,50.2L178,153.69a31.39,31.39,0,0,1-8.53,15.78h0A31.39,31.39,0,0,1,153.69,178l-22.45,4.69A78.28,78.28,0,0,1,81,176.48L23.7,148.65A31.38,31.38,0,0,1,6.78,127.27l-6-26.88a31.37,31.37,0,0,1,8.43-29L33.65,46.89Z"/><path class="cls-2" d="M60.45,17.21h0A14.26,14.26,0,0,0,71.2,25h0a14.28,14.28,0,0,1,7.91,24.35h0A14.27,14.27,0,0,0,75,62h0A14.28,14.28,0,0,1,54.29,77h0A14.24,14.24,0,0,0,41,77h0A14.28,14.28,0,0,1,20.3,62h0a14.29,14.29,0,0,0-4.1-12.63h0A14.27,14.27,0,0,1,24.11,25h0a14.26,14.26,0,0,0,10.74-7.8h0A14.27,14.27,0,0,1,60.45,17.21Z"/></g></g></svg>